# xmcd
#
# Track frame offsets:
# 150
# 21466
# 51929
# 72378
# 95431
# 115373
# 135529
# 157720
# 181410
# 200210
# 220673
# 248174
# 272547
# 291282
# 311082
# 332109
#
# Disc length: 4664 seconds
#
# Revision: 0
# Processed by: cddbd v1.5.1PL2 Copyright (c) Steve Scherf et al.
# Submitted via: Audion 3.0.2 (http://www.panic.com/audion/)
#
DISCID=f5123610
DTITLE=a - salsa
DYEAR=1900
DGENRE=
TTITLE0=a
TTITLE1=aa
TTITLE2=a
TTITLE3=a
TTITLE4=a
TTITLE5=a
TTITLE6=a
TTITLE7=a
TTITLE8=a
TTITLE9=a
TTITLE10=Un monton de estrellas
TTITLE11=a
TTITLE12=a
TTITLE13=a
TTITLE14=a
TTITLE15=a
EXTD=
EXTT0=
EXTT1=
EXTT2=
EXTT3=
EXTT4=
EXTT5=
EXTT6=
EXTT7=
EXTT8=
EXTT9=
EXTT10=
EXTT11=
EXTT12=
EXTT13=
EXTT14=
EXTT15=
PLAYORDER=
